<svg xmlns="http://www.w3.org/2000/svg" viewBox="0 0 860 500">
  <rect width="860" height="500" fill="#faf7f0"/>
  <text x="42" y="50" font-family="Georgia, serif" font-size="28" font-weight="700" fill="#1f1a14">Central America: average seasonal pattern</text>
  <text x="42" y="78" font-family="monospace" font-size="13" fill="#8a7e6e" letter-spacing="1.2">REAL DATA · monthly NDVI proxy averaged across years</text>
  
  <line x1="76" y1="410" x2="824" y2="410" stroke="#1f1a14" opacity="0.45"/>
  <line x1="76" y1="112" x2="76" y2="410" stroke="#1f1a14" opacity="0.45"/>
  <rect x="84.7" y="200.5" width="44.9" height="209.5" fill="#4a7a2a" opacity="0.88"/><text x="107.2" y="452" text-anchor="middle" font-family="monospace" font-size="11" fill="#8a7e6e">Jan</text><rect x="147.1" y="188.8" width="44.9" height="221.2" fill="#4a7a2a" opacity="0.88"/><text x="169.5" y="452" text-anchor="middle" font-family="monospace" font-size="11" fill="#8a7e6e">Feb</text><rect x="209.4" y="173.3" width="44.9" height="236.7" fill="#4a7a2a" opacity="0.88"/><text x="231.8" y="452" text-anchor="middle" font-family="monospace" font-size="11" fill="#8a7e6e">Mar</text><rect x="271.7" y="158.9" width="44.9" height="251.1" fill="#4a7a2a" opacity="0.88"/><text x="294.2" y="452" text-anchor="middle" font-family="monospace" font-size="11" fill="#8a7e6e">Apr</text><rect x="334.1" y="147.3" width="44.9" height="262.7" fill="#4a7a2a" opacity="0.88"/><text x="356.5" y="452" text-anchor="middle" font-family="monospace" font-size="11" fill="#8a7e6e">May</text><rect x="396.4" y="143.9" width="44.9" height="266.1" fill="#4a7a2a" opacity="0.88"/><text x="418.8" y="452" text-anchor="middle" font-family="monospace" font-size="11" fill="#8a7e6e">Jun</text><rect x="458.7" y="147.0" width="44.9" height="263.0" fill="#4a7a2a" opacity="0.88"/><text x="481.2" y="452" text-anchor="middle" font-family="monospace" font-size="11" fill="#8a7e6e">Jul</text><rect x="521.1" y="157.7" width="44.9" height="252.3" fill="#4a7a2a" opacity="0.88"/><text x="543.5" y="452" text-anchor="middle" font-family="monospace" font-size="11" fill="#8a7e6e">Aug</text><rect x="583.4" y="173.1" width="44.9" height="236.9" fill="#4a7a2a" opacity="0.88"/><text x="605.8" y="452" text-anchor="middle" font-family="monospace" font-size="11" fill="#8a7e6e">Sep</text><rect x="645.7" y="187.5" width="44.9" height="222.5" fill="#4a7a2a" opacity="0.88"/><text x="668.2" y="452" text-anchor="middle" font-family="monospace" font-size="11" fill="#8a7e6e">Oct</text><rect x="708.1" y="200.3" width="44.9" height="209.7" fill="#4a7a2a" opacity="0.88"/><text x="730.5" y="452" text-anchor="middle" font-family="monospace" font-size="11" fill="#8a7e6e">Nov</text><rect x="770.4" y="204.2" width="44.9" height="205.8" fill="#4a7a2a" opacity="0.88"/><text x="792.8" y="452" text-anchor="middle" font-family="monospace" font-size="11" fill="#8a7e6e">Dec</text>
  <text x="76" y="94" font-family="monospace" font-size="13" fill="#8a7e6e">Mean monthly NDVI proxy</text>
  <rect x="42" y="405" width="590" height="48" rx="6" fill="#fffaf0" stroke="#e6dccb"/>
  <text x="58" y="435" font-family="monospace" font-size="14" fill="#1f1a14">Lowest avg: Dec 0.542 · Highest avg: Jun 0.701</text>

</svg>
